<svg width="32" height="32" viewBox="0 0 32 32" fill="none" xmlns="http://www.w3.org/2000/svg">
<path d="M20 1C18.1 1 16.3004 1.7 14.9004 3H13.5C11.85 3 10.5 4.35 10.5 6C10.5 6.75 10.8 7.45 11.25 8C10.55 8 9.9498 8.45039 9.7998 9.15039L9.59961 10H8V9.84961C8 9.09961 7.4502 8.44961 6.7002 8.34961L4.75 8.0498C4.15 7.9998 3.5 8.35039 3.25 8.90039L2.2002 11.0498C2.0502 11.2498 2 11.5 2 11.75V18C2 18.8 2.30039 19.5496 2.90039 20.0996L4.4502 21.6504C4.8002 22.0004 5 22.4998 5 23.0498V30.5C5 30.8 5.2 31 5.5 31H10H30C30.25 31 30.5 30.7998 30.5 30.5498L31 23.5C31 21.75 25.7 20.2496 23 19.5996V18.25L24.6504 17.3496C24.7004 17.3496 24.7 17.2998 24.75 17.2998C25.55 16.6498 26 15.6496 26 14.5996V13.5H26.25C27.2 13.5 28 12.7 28 11.75C28 11.2 27.7498 10.6996 27.2998 10.3496C27.3998 9.79961 27.5 9.15 27.5 8.5C27.5 4.35 24.15 1 20 1ZM20 2C23.6 2 26.5 4.9 26.5 8.5C26.5 9.05 26.4496 9.55 26.3496 10H26.25H25.7002L23.5 8.25V6C23.5 4.35 22.15 3 20.5 3H16.5498C17.5498 2.35 18.75 2 20 2ZM13.5 4H20.5C21.6 4 22.5 4.9 22.5 6V8H13.7002H13.5C12.4 8 11.5 7.1 11.5 6C11.5 4.9 12.4 4 13.5 4ZM11.2998 9H13.5H13.7002C13.9502 9 14.1502 9.15039 14.2002 9.40039L14.3496 10H10.6504L10.7998 9.40039C10.8498 9.20039 11.0498 9 11.2998 9ZM15.1504 9H22.8496L25.0498 10.75V14.5996H25C25 15.3496 24.7004 16 24.1504 16.5L21.8496 17.75C21.5496 17.9 21.1996 18 20.8496 18H20V10.5C20 10.2 19.8 10 19.5 10H15.4004L15.2002 9.15039C15.2002 9.10039 15.1504 9.05 15.1504 9ZM4.45117 9.13965C4.49961 9.13418 4.54961 9.13789 4.59961 9.15039L6.5498 9.4502C6.7998 9.5002 7 9.7002 7 9.9502V10H6.5H5V11H6V12H5V13H6V14H5V15H6V15.25C6 15.65 5.65 16 5.25 16H5V17H5.25C5.35 17 5.4 17.0002 5.5 16.9502V18.5C5.5 18.8 5.7 19 6 19H7.65039L9 25.0996H9.09961L9.4502 30H6V23.0498C6 22.2498 5.69961 21.5004 5.09961 20.9004L3.5498 19.3496C3.1998 18.9996 3 18.5002 3 17.9502V11.75C3 11.65 2.9998 11.5998 3.0498 11.5498L4.09961 9.40039C4.17461 9.25039 4.30586 9.15605 4.45117 9.13965ZM7 11H7.5H10.5498C9.4498 11.6 8.65 12.7 8.5 14C8.1 14.05 7.75 14.2 7.5 14.5C7.2 14.8 7.10039 15.2502 7.15039 15.7002L7.4502 18H6.5V16.5H6.4502C6.8002 16.2 7 15.75 7 15.25V11ZM14.4502 11H19V18H17.5996L17.8496 15.5C17.8996 15 17.7504 14.4996 17.4004 14.0996C17.1004 13.7996 16.7504 13.5998 16.4004 13.5498C16.1504 12.4498 15.4002 11.55 14.4502 11ZM26 11H26.25C26.65 11 27 11.35 27 11.75C27 12.15 26.65 12.5 26.25 12.5H26V11ZM22.5 11.0996C22 11.0996 21.5996 11.5 21.5996 12C21.5996 12.5 22 12.9004 22.5 12.9004C23 12.9004 23.4004 12.5 23.4004 12C23.4004 11.5 23 11.0996 22.5 11.0996ZM12.5 11.5C14.15 11.5 15.5 12.85 15.5 14.5C15.5 16.15 14.15 17.5 12.5 17.5C10.85 17.5 9.5 16.15 9.5 14.5C9.5 12.85 10.85 11.5 12.5 11.5ZM22.5 11.9004C22.55 11.9004 22.5996 11.95 22.5996 12C22.5996 12.15 22.4004 12.15 22.4004 12C22.4004 11.95 22.45 11.9004 22.5 11.9004ZM12.5 12.5C11.4 12.5 10.5 13.4 10.5 14.5C10.5 15.6 11.4 16.5 12.5 16.5C13.6 16.5 14.5 15.6 14.5 14.5C14.5 13.4 13.6 12.5 12.5 12.5ZM12.5 13.5C13.05 13.5 13.5 13.95 13.5 14.5C13.5 15.05 13.05 15.5 12.5 15.5C11.95 15.5 11.5 15.05 11.5 14.5C11.5 13.95 11.95 13.5 12.5 13.5ZM16.5 14.6504L16.6504 14.7998C16.8004 14.9498 16.8996 15.2002 16.8496 15.4502L16.5498 18.4502C16.5498 18.7002 16.45 18.8998 16.25 19.0498C15.75 19.5498 15.55 20.3 15.75 21L17.3496 26.5996L16.5498 26.5L16.4502 27.5L25 28.4502V30H14.4004L13.25 23.3496C13.05 22.2996 12.65 21.35 12 20.5C11.55 19.9 10.9498 19.3998 10.2998 19.0498L8.7002 18.25C8.5502 18.2 8.5002 18.0502 8.4502 17.9502V17.8496L8.15039 15.5498C8.15039 15.3998 8.15 15.2504 8.25 15.1504C8.3 15.0504 8.3998 15 8.5498 15C8.7998 16.95 10.5 18.5 12.5 18.5C14.65 18.5 16.4 16.8004 16.5 14.6504ZM22 18.75V20.75C20.85 21.75 19.15 21.75 18 20.75V19H19.5H20.8496C21.2496 19 21.65 18.9 22 18.75ZM8.75 19.4502L9.84961 20C10.3996 20.25 10.8502 20.6504 11.2002 21.1504C11.2502 21.2504 11.3004 21.3504 11.4004 21.4004C10.5004 21.8004 9.8502 22.1498 9.4502 22.5498L8.75 19.4502ZM17 19.7002V21C17 21.15 17.0504 21.2496 17.1504 21.3496C17.9504 22.1496 18.95 22.5498 20 22.5498C21.05 22.5498 22.0496 22.1496 22.8496 21.3496C22.9496 21.2496 23 21.15 23 21V20.6504C27.35 21.7004 30 23 30 23.5L29.5498 30H26V26H25V27.4502L18.4502 26.7002L16.75 20.7002C16.65 20.3502 16.75 20.0002 17 19.7002ZM11.9004 22.25C12.1004 22.65 12.1998 23.1 12.2998 23.5L13.4004 30H10.4502L10 23.5C10 23.5 10.0504 23.05 11.9004 22.25Z" fill="#9F9F9F"/>
</svg>
