<svg width="18" height="19" viewBox="0 0 18 19" fill="none" xmlns="http://www.w3.org/2000/svg">
<g clip-path="url(#clip0_14_20)">
<path d="M16.903 15.9525L11.4667 10.525C12.5716 9.01194 13.0605 7.03033 12.4249 4.92181C11.7601 2.74496 9.91213 1.03668 7.68289 0.587643C3.13641 -0.329952 -0.784324 3.59423 0.13475 8.12363C0.58451 10.359 2.29555 12.204 4.47591 12.858C6.58782 13.4925 8.57263 13.0044 10.0881 11.9014L15.5244 17.3289C15.9057 17.7096 16.5216 17.7096 16.903 17.3289C17.2843 16.9482 17.2843 16.3332 16.903 15.9525ZM1.95334 6.79605C1.95334 4.3654 3.9186 2.40331 6.35317 2.40331C8.78774 2.40331 10.753 4.3654 10.753 6.79605C10.753 9.22669 8.78774 11.1888 6.35317 11.1888C3.9186 11.1888 1.95334 9.22669 1.95334 6.79605Z" fill="#737373"/>
</g>
<defs>
<clipPath id="clip0_14_20">
<rect y="0.453369" width="18" height="18" rx="5" fill="white"/>
</clipPath>
</defs>
</svg>
